<?xml version="1.0" standalone="no"?>
<!DOCTYPE svg PUBLIC "-//W3C//DTD SVG 20010904//EN"
 "http://www.w3.org/TR/2001/REC-SVG-20010904/DTD/svg10.dtd">
<svg version="1.0" xmlns="http://www.w3.org/2000/svg"
 width="700.000000pt" height="700.000000pt" viewBox="0 0 700.000000 700.000000"
 preserveAspectRatio="xMidYMid meet">
<metadata>
Created by potrace 1.14, written by Peter Selinger 2001-2017
</metadata>
<g transform="translate(0.000000,700.000000) scale(0.100000,-0.100000)"
fill="#000000" stroke="none">
<path d="M5390 5000 c-327 -39 -606 -225 -742 -495 -14 -27 -38 -88 -53 -135
-37 -114 -46 -314 -20 -441 56 -279 235 -481 541 -612 43 -19 171 -64 284
-102 243 -80 308 -106 376 -151 95 -63 138 -164 115 -267 -28 -125 -127 -193
-320 -218 -172 -22 -365 17 -558 112 -93 46 -138 75 -192 126 -40 36 -73 64
-75 62 -7 -7 -276 -499 -276 -504 0 -13 85 -83 171 -141 312 -210 797 -295
1155 -204 340 87 575 319 660 650 26 103 27 374 1 470 -40 152 -132 289 -255
383 -136 104 -259 162 -552 262 -336 114 -454 173 -493 248 -29 56 -27 153 5
215 32 62 105 117 193 144 97 31 256 31 375 -1 131 -34 273 -107 356 -184 l70
-65 145 247 146 246 -31 34 c-126 136 -391 263 -637 305 -113 20 -295 27 -389
16z"/>
<path d="M1510 3978 c-1 -1052 -2 -1073 -54 -1176 -49 -97 -125 -151 -242
-173 -119 -22 -254 9 -421 96 l-102 54 -46 -147 c-26 -81 -65 -205 -87 -276
l-41 -129 23 -19 c13 -11 54 -37 90 -58 367 -214 854 -208 1147 14 114 87 211
220 263 363 68 188 63 106 67 1321 l4 1102 -301 0 -300 0 0 -972z"/>
<path d="M3417 4943 c-4 -3 -7 -448 -7 -987 0 -1068 0 -1063 -57 -1167 -108
-200 -394 -220 -687 -49 -38 22 -70 39 -71 38 -2 -3 -157 -491 -171 -539 -8
-29 164 -129 313 -182 169 -61 436 -80 608 -43 352 76 583 327 650 706 13 72
15 252 15 1158 l0 1072 -293 0 c-162 0 -297 -3 -300 -7z"/>
</g>
</svg>
