<?xml version="1.0" encoding="UTF-8" standalone="no"?>
<svg
   version="1.1"
   viewBox="0 0 50.8 50.8"
   id="favicon"
   sodipodi:docname="favicon.svg"
   inkscape:version="1.2.2 (732a01da63, 2022-12-09, custom)"
   xmlns:inkscape="http://www.inkscape.org/namespaces/inkscape"
   xmlns:sodipodi="http://sodipodi.sourceforge.net/DTD/sodipodi-0.dtd"
   xmlns="http://www.w3.org/2000/svg"
   xmlns:svg="http://www.w3.org/2000/svg">
  <defs
     id="defs" />
  <sodipodi:namedview
     id="nv"
     pagecolor="#ffffff"
     bordercolor="#000000"
     borderopacity="0.25"
     inkscape:showpageshadow="2"
     inkscape:pageopacity="0.0"
     inkscape:pagecheckerboard="0"
     inkscape:deskcolor="#d1d1d1"
     showgrid="false"
     inkscape:zoom="5.3489583"
     inkscape:cx="56.272639"
     inkscape:cy="96.560857"
     inkscape:window-width="2560"
     inkscape:window-height="1376"
     inkscape:window-x="0"
     inkscape:window-y="27"
     inkscape:window-maximized="1"
     inkscape:current-layer="favicon" />
  <rect
     x="-19.05"
     y="-19.05"
     width="50.8"
     height="50.8"
     rx="3.9688"
     fill="#daf"
     id="bg"
     transform="translate(19.05,19.05)"
     inkscape:label="Achtergrond" />
  <g
     transform="matrix(0.90249999,0,0,1.035,19.66886,18.82817)"
     fill="#290661"
     aria-label="JJS"
     id="text"
     inkscape:label="Tekst">
    <path
       d="m-11.997 16.901q-1.6633 0-3.0808-0.43392t-2.5456-1.186l1.403-3.8763q0.96908 0.53516 1.8369 0.82444 0.8823 0.28928 1.7212 0.28928 1.4319 0 2.2274-0.76659 0.79551-0.76659 0.79551-2.4444v-13.09h4.802v14.073q0 1.9671-0.83891 3.4569t-2.4444 2.3287q-1.591 0.82444-3.8763 0.82444z"
       id="char1"
       inkscape:label="Letter 1" />
    <path
       d="m3.3054 16.901q-1.6633 0-3.0808-0.43392t-2.5456-1.186l1.403-3.8763q0.96908 0.53516 1.8369 0.82444 0.8823 0.28928 1.7212 0.28928 1.4319 0 2.2274-0.76659 0.79551-0.76659 0.79551-2.4444v-13.09h4.802v14.073q0 1.9671-0.83891 3.4569t-2.4444 2.3287q-1.591 0.82444-3.8763 0.82444z"
       id="char2"
       inkscape:label="Letter 2" />
    <path
       d="m22.282 16.901q-2.2998 0-4.4693-0.6798-2.1696-0.6798-3.6738-1.9671l2.2564-3.587q0.63641 0.6798 1.62 1.1716 0.98354 0.49177 2.0973 0.76659 1.1282 0.26035 2.184 0.26035 1.4898 0 2.4155-0.49177 0.94015-0.50624 0.94015-1.4609 0-0.78105-0.6798-1.3162-0.66534-0.53516-2.5023-1.0269l-1.7357-0.49177q-3.1242-0.86783-4.4983-2.3721t-1.3741-3.616q0-1.3596 0.57856-2.5023 0.57856-1.1571 1.62-1.996 1.0414-0.85337 2.4444-1.3162 1.4175-0.47731 3.0808-0.47731 2.2998 0 4.2668 0.6798 1.9816 0.66534 3.1821 1.8225l-2.3432 3.4713q-0.54963-0.57856-1.3596-1.0125-0.80998-0.43392-1.7646-0.6798-0.95462-0.24589-1.9237-0.24589-0.95462 0-1.6633 0.24589t-1.1137 0.70873q-0.39052 0.44838-0.39052 1.0703 0 0.50624 0.28928 0.85337 0.30374 0.33267 0.99801 0.63641 0.70873 0.30374 1.9092 0.66534l1.7646 0.5207q3.1097 0.91123 4.4983 2.2853 1.3885 1.3741 1.3885 3.5726 0 1.9237-0.98354 3.399-0.98354 1.4609-2.7915 2.2853-1.7935 0.82444-4.2668 0.82444z"
       id="char3"
       inkscape:label="Letter 3" />
  </g>
</svg>
